<svg xmlns="http://www.w3.org/2000/svg" xmlns:xlink="http://www.w3.org/1999/xlink" width="2000" zoomAndPan="magnify" viewBox="210 200 1060 830" height="2000" preserveAspectRatio="xMidYMid meet" version="1.0"><defs><g/><clipPath id="0549512b00"><rect x="0" width="989" y="0" height="470"/></clipPath></defs><g fill="#545454" fill-opacity="1"><g transform="translate(242.910159, 996.062126)"><g><path d="M 126.511719 -359.929688 L 323.261719 -359.929688 L 323.925781 -182.988281 L 294.378906 -180.925781 C 285.820312 -180.328125 275.433594 -180.605469 263.214844 -181.75 C 250.148438 -182.972656 237.144531 -186.214844 224.210938 -191.46875 C 209.898438 -197.28125 197.847656 -206.3125 188.050781 -218.558594 C 177.613281 -231.601562 172.175781 -248.707031 171.734375 -269.863281 C 171.273438 -289.65625 175.710938 -305.257812 185.050781 -316.667969 C 192.960938 -326.339844 202.589844 -334.226562 213.929688 -340.335938 L 223.222656 -323.074219 L 203.9375 -319.566406 L 202.890625 -325.316406 L 222.179688 -328.824219 L 221.089844 -309.25 C 210.566406 -309.835938 200.183594 -308.8125 189.945312 -306.179688 C 181.207031 -303.929688 174.003906 -299.976562 168.339844 -294.3125 C 163.851562 -289.820312 161.492188 -282.875 161.269531 -273.464844 C 161.042969 -265.230469 163.0625 -258.101562 167.335938 -252.078125 C 172.761719 -244.425781 179.894531 -237.601562 188.738281 -231.613281 C 198.894531 -224.734375 209.375 -218.511719 220.179688 -212.945312 C 231.882812 -206.914062 242.1875 -201.40625 251.097656 -196.414062 C 277.90625 -181.652344 297.691406 -164.550781 310.449219 -145.109375 C 324.265625 -124.054688 328.8125 -100.003906 324.089844 -72.953125 C 321.613281 -58.101562 316.359375 -43.878906 308.324219 -30.28125 C 299.769531 -15.808594 287.460938 -3.964844 271.398438 5.246094 C 255.308594 14.46875 235.242188 19.082031 211.199219 19.082031 L -4.375 19.082031 L -5.03125 -166.390625 L 22.078125 -168.035156 C 28.480469 -168.421875 36.449219 -168.429688 45.988281 -168.054688 C 56.0625 -167.660156 66.730469 -166.199219 78 -163.675781 C 90.050781 -160.972656 101.472656 -156.511719 112.261719 -150.289062 C 124.125 -143.441406 133.882812 -133.945312 141.53125 -121.796875 C 149.464844 -109.195312 153.433594 -93.515625 153.433594 -74.757812 L 133.828125 -74.757812 L 153.429688 -75.210938 C 153.875 -56 150.027344 -40.472656 141.882812 -28.625 C 134.390625 -17.730469 124.601562 -8.925781 112.507812 -2.207031 L 102.984375 -19.34375 L 121.898438 -24.5 L 123.46875 -18.75 L 104.554688 -13.59375 L 104.050781 -33.191406 C 116.054688 -33.496094 126.691406 -34.921875 135.964844 -37.464844 C 142.871094 -39.359375 148.414062 -42.769531 152.59375 -47.703125 C 156.398438 -52.191406 158.421875 -59.789062 158.667969 -70.496094 L 178.265625 -70.050781 L 158.695312 -68.878906 C 157.890625 -82.28125 154.277344 -93.140625 147.855469 -101.453125 C 140.496094 -110.976562 131.273438 -119.019531 120.183594 -125.585938 C 107.445312 -133.128906 94.027344 -140.257812 79.921875 -146.972656 C 64.585938 -154.277344 50.234375 -162.140625 36.859375 -170.566406 C 21.640625 -180.15625 9.492188 -192.125 0.421875 -206.472656 C -9.242188 -221.753906 -13.644531 -240.484375 -12.792969 -262.664062 C -11.945312 -284.285156 -6.761719 -301.894531 2.757812 -315.496094 C 12.125 -328.875 24.183594 -338.917969 38.9375 -345.625 C 52.316406 -351.707031 66.914062 -355.648438 82.730469 -357.449219 C 97.234375 -359.101562 111.828125 -359.929688 126.511719 -359.929688 Z M 126.511719 -320.722656 C 113.3125 -320.722656 100.199219 -319.980469 87.167969 -318.496094 C 75.453125 -317.160156 64.785156 -314.304688 55.160156 -309.929688 C 46.910156 -306.179688 40.152344 -300.542969 34.878906 -293.011719 C 29.761719 -285.703125 26.933594 -275.082031 26.386719 -261.15625 C 25.84375 -247.089844 28.234375 -235.847656 33.558594 -227.429688 C 39.472656 -218.074219 47.539062 -210.179688 57.761719 -203.738281 C 69.832031 -196.132812 82.835938 -189.011719 96.777344 -182.371094 C 111.945312 -175.148438 126.40625 -167.464844 140.160156 -159.324219 C 155.554688 -150.207031 168.460938 -138.910156 178.878906 -125.429688 C 190.230469 -110.738281 196.546875 -92.671875 197.835938 -71.226562 L 197.882812 -70.417969 L 197.863281 -69.605469 C 197.410156 -49.644531 192.289062 -33.894531 182.5 -22.347656 C 173.089844 -11.25 161.035156 -3.683594 146.332031 0.347656 C 133.996094 3.730469 120.238281 5.617188 105.058594 6.003906 L 89.6875 6.398438 L 80.027344 -29.015625 L 93.464844 -36.480469 C 100.191406 -40.214844 105.5625 -45.003906 109.574219 -50.835938 C 112.929688 -55.71875 114.480469 -63.539062 114.230469 -74.300781 L 114.226562 -74.527344 L 114.226562 -74.757812 C 114.226562 -85.972656 112.269531 -94.6875 108.351562 -100.90625 C 104.152344 -107.574219 98.925781 -112.714844 92.667969 -116.328125 C 85.332031 -120.558594 77.585938 -123.589844 69.421875 -125.417969 C 60.476562 -127.421875 52.152344 -128.578125 44.453125 -128.878906 C 36.214844 -129.203125 29.546875 -129.207031 24.449219 -128.898438 L 15.824219 -128.375 L 14.636719 -147.945312 L 34.242188 -148.015625 L 34.765625 -0.59375 L 15.160156 -0.523438 L 15.160156 -20.125 L 211.199219 -20.125 C 228.28125 -20.125 241.847656 -23.007812 251.898438 -28.769531 C 261.972656 -34.546875 269.527344 -41.699219 274.566406 -50.226562 C 280.125 -59.628906 283.757812 -69.453125 285.464844 -79.695312 C 288.410156 -96.558594 285.808594 -111.191406 277.667969 -123.597656 C 268.472656 -137.613281 253.230469 -150.484375 231.941406 -162.207031 C 223.429688 -166.972656 213.519531 -172.269531 202.222656 -178.089844 C 190.023438 -184.371094 178.199219 -191.394531 166.746094 -199.152344 C 153.984375 -207.800781 143.515625 -217.882812 135.351562 -229.398438 C 126.03125 -242.542969 121.605469 -257.542969 122.074219 -274.398438 C 122.546875 -294.269531 128.726562 -310.148438 140.617188 -322.035156 C 151.332031 -332.753906 164.519531 -340.125 180.179688 -344.152344 C 194.335938 -347.792969 208.699219 -349.207031 223.265625 -348.398438 L 238.699219 -347.539062 L 245.058594 -312.566406 L 232.519531 -305.8125 C 225.734375 -302.160156 220.027344 -297.503906 215.394531 -291.839844 C 212.183594 -287.917969 210.699219 -280.863281 210.933594 -270.683594 C 211.191406 -258.382812 213.769531 -249.171875 218.667969 -243.050781 C 224.203125 -236.128906 230.972656 -231.042969 238.964844 -227.792969 C 248.335938 -223.988281 257.640625 -221.652344 266.875 -220.785156 C 276.964844 -219.839844 285.222656 -219.589844 291.648438 -220.039062 L 302.890625 -220.824219 L 304.253906 -201.265625 L 284.648438 -201.195312 L 284.128906 -340.25 L 303.730469 -340.324219 L 303.730469 -320.722656 Z M 126.511719 -320.722656 "/></g></g></g><g fill="#545454" fill-opacity="1"><g transform="translate(557.095842, 996.062126)"><g><path d="M 181.925781 -367.246094 C 209.015625 -367.246094 234.515625 -362.097656 258.425781 -351.792969 C 282.160156 -341.566406 303.015625 -327.464844 320.992188 -309.488281 C 338.96875 -291.511719 353.070312 -270.660156 363.296875 -246.925781 C 373.597656 -223.015625 378.75 -197.515625 378.75 -170.425781 C 378.75 -143.332031 373.597656 -117.832031 363.296875 -93.921875 C 353.082031 -70.222656 339.007812 -49.304688 321.066406 -31.171875 C 303.074219 -12.984375 282.191406 1.226562 258.425781 11.46875 C 234.519531 21.773438 209.015625 26.921875 181.925781 26.921875 C 154.851562 26.921875 129.28125 21.777344 105.214844 11.492188 C 81.253906 1.25 60.269531 -12.972656 42.261719 -31.171875 C 24.320312 -49.304688 10.242188 -70.222656 0.03125 -93.921875 C -10.269531 -117.832031 -15.421875 -143.332031 -15.421875 -170.425781 C -15.421875 -197.515625 -10.269531 -223.015625 0.03125 -246.925781 C 10.257812 -270.660156 24.359375 -291.511719 42.335938 -309.488281 C 60.328125 -327.480469 81.285156 -341.589844 105.214844 -351.816406 C 129.28125 -362.105469 154.851562 -367.246094 181.925781 -367.246094 Z M 181.925781 -328.039062 C 160.203125 -328.039062 139.769531 -323.949219 120.625 -315.765625 C 101.335938 -307.519531 84.480469 -296.1875 70.058594 -281.765625 C 55.625 -267.332031 44.285156 -250.546875 36.039062 -231.410156 C 27.871094 -212.453125 23.785156 -192.125 23.785156 -170.425781 C 23.785156 -148.722656 27.871094 -128.394531 36.039062 -109.4375 C 44.296875 -90.269531 55.664062 -73.371094 70.132812 -58.746094 C 84.539062 -44.1875 101.371094 -32.789062 120.625 -24.5625 C 139.769531 -16.378906 160.203125 -12.285156 181.925781 -12.285156 C 203.625 -12.285156 223.953125 -16.371094 242.910156 -24.539062 C 262.011719 -32.769531 278.773438 -44.171875 293.191406 -58.746094 C 307.664062 -73.371094 319.027344 -90.269531 327.289062 -109.4375 C 335.457031 -128.394531 339.539062 -148.722656 339.539062 -170.425781 C 339.539062 -192.125 335.457031 -212.453125 327.289062 -231.410156 C 319.042969 -250.546875 307.703125 -267.332031 293.265625 -281.765625 C 278.832031 -296.203125 262.046875 -307.542969 242.910156 -315.785156 C 223.953125 -323.957031 203.625 -328.039062 181.925781 -328.039062 Z M 173.039062 -179.574219 C 169.769531 -179.574219 167.023438 -178.996094 164.792969 -177.84375 C 162.597656 -176.707031 160.589844 -174.84375 158.777344 -172.25 L 123.113281 -121.300781 L 123.113281 -327.777344 L 142.71875 -327.777344 L 148.5625 -309.066406 C 135.320312 -304.929688 124.679688 -298.304688 116.640625 -289.191406 C 108.113281 -279.527344 101.992188 -268.339844 98.277344 -255.628906 C 94.496094 -242.683594 93.40625 -229.519531 95.007812 -216.140625 C 96.617188 -202.667969 100.628906 -190.171875 107.042969 -178.65625 C 113.042969 -167.882812 121.550781 -159.125 132.566406 -152.375 C 143.367188 -145.761719 156.855469 -142.457031 173.039062 -142.457031 C 178.167969 -142.457031 182.578125 -144.253906 186.261719 -147.855469 C 189.816406 -151.328125 191.597656 -155.714844 191.597656 -161.015625 C 191.597656 -166.054688 189.761719 -170.410156 186.097656 -174.074219 C 182.433594 -177.738281 178.078125 -179.574219 173.039062 -179.574219 Z M 173.039062 -218.78125 C 188.90625 -218.78125 202.5 -213.121094 213.824219 -201.796875 C 225.144531 -190.476562 230.804688 -176.882812 230.804688 -161.015625 C 230.804688 -144.707031 225.089844 -130.96875 213.660156 -119.804688 C 202.355469 -108.765625 188.816406 -103.246094 173.039062 -103.246094 C 149.488281 -103.246094 129.171875 -108.480469 112.089844 -118.941406 C 95.226562 -129.269531 82.125 -142.816406 72.789062 -159.578125 C 63.871094 -175.59375 58.296875 -192.898438 56.074219 -211.488281 C 53.839844 -230.171875 55.363281 -248.550781 60.644531 -266.621094 C 65.992188 -284.929688 74.855469 -301.097656 87.242188 -315.132812 C 100.113281 -329.71875 116.65625 -340.171875 136.871094 -346.488281 L 162.320312 -354.445312 L 162.320312 -183.492188 L 142.71875 -183.492188 L 126.65625 -194.734375 C 132.160156 -202.597656 138.867188 -208.578125 146.78125 -212.667969 C 154.65625 -216.742188 163.410156 -218.78125 173.039062 -218.78125 Z M 173.039062 -218.78125 "/></g></g></g><g fill="#545454" fill-opacity="1"><g transform="translate(921.467658, 996.062126)"><g><path d="M 17.25 -359.40625 C 29.582031 -359.40625 43.476562 -359.664062 58.941406 -360.179688 C 77.089844 -360.785156 93.246094 -358.585938 107.417969 -353.582031 C 125.398438 -347.3125 140.625 -337.515625 153.105469 -324.1875 C 165.128906 -311.347656 174.214844 -296.941406 180.355469 -280.96875 C 186.582031 -264.78125 189.277344 -248.671875 188.433594 -232.648438 L 168.855469 -233.679688 L 173.609375 -252.699219 L 179.882812 -251.128906 L 175.128906 -232.109375 L 157.75 -241.179688 C 161.332031 -248.050781 164.164062 -255.046875 166.242188 -262.171875 C 168.160156 -268.742188 169.117188 -274.929688 169.117188 -280.730469 L 169.117188 -359.40625 L 341.109375 -359.40625 L 341.109375 -274.976562 C 341.109375 -257.878906 335.6875 -242.492188 324.839844 -228.816406 C 315.71875 -217.316406 304.339844 -206.597656 290.703125 -196.664062 C 278.253906 -187.589844 265.535156 -178.785156 252.554688 -170.25 C 240.796875 -162.519531 230.457031 -154.433594 221.539062 -145.992188 C 214.359375 -139.195312 209.695312 -132.101562 207.546875 -124.703125 C 205.835938 -118.8125 207.324219 -111.1875 212.003906 -101.820312 L 194.472656 -93.054688 L 194.472656 -112.65625 L 200.222656 -112.65625 L 200.222656 -93.054688 L 181.574219 -99.101562 C 186.902344 -115.527344 195.597656 -128.859375 207.660156 -139.101562 C 218.660156 -148.441406 230.90625 -155.601562 244.402344 -160.585938 C 257.089844 -165.269531 269.378906 -168.40625 281.273438 -169.992188 C 292.421875 -171.476562 301.746094 -172.316406 309.238281 -172.507812 L 339.609375 -173.289062 L 338.953125 19.605469 L 266.613281 19.605469 C 246.292969 19.605469 228.140625 14.851562 212.160156 5.347656 C 196.828125 -3.765625 183.996094 -15.765625 173.664062 -30.640625 C 163.738281 -44.929688 156.386719 -60.242188 151.609375 -76.570312 C 146.75 -93.175781 144.9375 -109.132812 146.179688 -124.4375 L 165.71875 -122.851562 L 158.4375 -104.648438 L 153.210938 -106.742188 L 160.492188 -124.941406 L 175.09375 -111.863281 C 163.6875 -99.128906 158.550781 -81.15625 159.683594 -57.9375 L 159.707031 -57.460938 L 159.707031 19.605469 L -9.671875 19.605469 L -9.671875 -59.597656 C -9.671875 -79.902344 -5.101562 -97.777344 4.039062 -113.230469 C 12.535156 -127.59375 23.433594 -140.214844 36.726562 -151.09375 C 48.890625 -161.046875 61.523438 -170.082031 74.625 -178.199219 C 86.597656 -185.621094 97.445312 -192.851562 107.171875 -199.894531 C 115.265625 -205.753906 121.257812 -211.730469 125.148438 -217.828125 C 127.023438 -220.765625 127.203125 -224.503906 125.6875 -229.046875 L 144.285156 -235.246094 L 144.285156 -215.644531 L 138.011719 -215.644531 L 138.011719 -235.246094 L 156.507812 -228.75 C 150.675781 -212.152344 141.492188 -199.09375 128.957031 -189.574219 C 117.546875 -180.914062 104.972656 -174.679688 91.226562 -170.875 C 78.609375 -167.378906 66.3125 -165.238281 54.34375 -164.453125 C 42.785156 -163.695312 33.144531 -163.613281 25.417969 -164.207031 L -2.9375 -166.390625 L -2.285156 -359.40625 Z M 17.25 -320.199219 L 17.25 -339.800781 L 36.855469 -339.734375 L 36.332031 -184.472656 L 16.730469 -184.539062 L 18.230469 -204.085938 L 28.425781 -203.300781 C 34.292969 -202.847656 42.078125 -202.941406 51.777344 -203.578125 C 61.070312 -204.1875 70.730469 -205.882812 80.765625 -208.660156 C 89.671875 -211.125 97.835938 -215.175781 105.246094 -220.800781 C 111.53125 -225.574219 116.285156 -232.554688 119.515625 -241.746094 L 124.121094 -254.851562 L 158.414062 -254.851562 L 162.882812 -241.445312 C 168.339844 -225.078125 166.777344 -210.175781 158.195312 -196.730469 C 151.628906 -186.445312 142.289062 -176.914062 130.167969 -168.136719 C 119.679688 -160.542969 108.050781 -152.789062 95.277344 -144.875 C 83.632812 -137.65625 72.390625 -129.617188 61.554688 -120.75 C 51.847656 -112.804688 43.921875 -103.644531 37.785156 -93.265625 C 32.285156 -83.972656 29.535156 -72.75 29.535156 -59.597656 L 29.535156 0 L 9.933594 0 L 9.933594 -19.605469 L 140.101562 -19.605469 L 140.101562 0 L 120.5 0 L 120.5 -56.980469 L 140.101562 -56.980469 L 120.523438 -56.027344 C 118.867188 -89.964844 127.324219 -117.296875 145.890625 -138.023438 L 155.039062 -148.238281 L 186.425781 -135.683594 L 185.257812 -121.265625 C 184.410156 -110.78125 185.734375 -99.550781 189.238281 -87.582031 C 192.824219 -75.332031 198.367188 -63.804688 205.867188 -53.003906 C 212.964844 -42.785156 221.738281 -34.570312 232.199219 -28.351562 C 242.003906 -22.519531 253.476562 -19.605469 266.613281 -19.605469 L 319.414062 -19.605469 L 319.414062 0 L 299.808594 -0.0664062 L 300.332031 -153.238281 L 319.9375 -153.171875 L 320.4375 -133.574219 L 310.246094 -133.3125 C 304.148438 -133.15625 296.21875 -132.429688 286.457031 -131.125 C 277.4375 -129.925781 267.949219 -127.484375 257.984375 -123.804688 C 248.824219 -120.421875 240.511719 -115.558594 233.035156 -109.214844 C 226.628906 -103.773438 221.90625 -96.371094 218.871094 -87.003906 L 214.472656 -73.449219 L 182.355469 -73.449219 L 176.9375 -84.285156 C 167.679688 -102.800781 165.332031 -119.917969 169.894531 -135.636719 C 174.019531 -149.847656 182.25 -162.792969 194.589844 -174.46875 C 205.183594 -184.496094 217.328125 -194.011719 231.011719 -203.011719 C 243.46875 -211.203125 255.671875 -219.648438 267.617188 -228.351562 C 278.375 -236.191406 287.210938 -244.46875 294.121094 -253.179688 C 299.308594 -259.71875 301.902344 -266.984375 301.902344 -274.976562 L 301.902344 -339.800781 L 321.503906 -339.800781 L 321.503906 -320.199219 L 188.722656 -320.199219 L 188.722656 -339.800781 L 208.324219 -339.800781 L 208.324219 -280.730469 C 208.324219 -271.195312 206.84375 -261.347656 203.882812 -251.191406 C 201.078125 -241.585938 197.289062 -232.203125 192.507812 -223.042969 L 185.363281 -209.34375 L 148.429688 -218.578125 L 149.277344 -234.710938 C 149.828125 -245.171875 147.992188 -255.902344 143.761719 -266.894531 C 139.449219 -278.105469 133.023438 -288.269531 124.488281 -297.386719 C 116.402344 -306.019531 106.367188 -312.425781 94.371094 -316.609375 C 84.84375 -319.972656 73.46875 -321.433594 60.25 -320.992188 C 44.347656 -320.464844 30.015625 -320.199219 17.25 -320.199219 Z M 17.25 -320.199219 "/></g></g></g><g fill="#27c3bf" fill-opacity="1"><g transform="translate(242.910159, 996.062126)"><g><path d="M 126.515625 -340.328125 L 303.734375 -340.328125 L 304.25 -201.265625 C 304.25 -201.265625 300.5 -201.003906 293 -200.484375 C 285.507812 -199.960938 276.1875 -200.222656 265.03125 -201.265625 C 253.882812 -202.304688 242.734375 -205.09375 231.578125 -209.625 C 220.429688 -214.15625 211.023438 -221.210938 203.359375 -230.796875 C 195.691406 -240.378906 191.679688 -253.535156 191.328125 -270.265625 C 190.984375 -285.253906 193.945312 -296.582031 200.21875 -304.25 C 206.488281 -311.914062 214.15625 -318.1875 223.21875 -323.0625 L 222.171875 -328.8125 C 209.628906 -329.507812 197.257812 -328.289062 185.0625 -325.15625 C 172.863281 -322.019531 162.664062 -316.359375 154.46875 -308.171875 C 146.28125 -299.984375 142.015625 -288.566406 141.671875 -273.921875 C 141.316406 -261.378906 144.535156 -250.316406 151.328125 -240.734375 C 158.128906 -231.148438 166.929688 -222.695312 177.734375 -215.375 C 188.546875 -208.0625 199.703125 -201.441406 211.203125 -195.515625 C 222.703125 -189.585938 232.804688 -184.1875 241.515625 -179.3125 C 265.566406 -166.0625 283.078125 -151.070312 294.046875 -134.34375 C 305.023438 -117.625 308.597656 -98.285156 304.765625 -76.328125 C 302.679688 -63.773438 298.238281 -51.75 291.4375 -40.25 C 284.644531 -28.75 274.710938 -19.25 261.640625 -11.75 C 248.578125 -4.257812 231.765625 -0.515625 211.203125 -0.515625 L 15.15625 -0.515625 L 14.640625 -147.9375 C 14.640625 -147.9375 17.515625 -148.109375 23.265625 -148.453125 C 29.015625 -148.804688 36.332031 -148.804688 45.21875 -148.453125 C 54.101562 -148.109375 63.597656 -146.800781 73.703125 -144.53125 C 83.816406 -142.269531 93.398438 -138.523438 102.453125 -133.296875 C 111.515625 -128.078125 119.007812 -120.757812 124.9375 -111.34375 C 130.863281 -101.9375 133.828125 -89.738281 133.828125 -74.75 C 134.171875 -59.769531 131.46875 -48.097656 125.71875 -39.734375 C 119.96875 -31.367188 112.390625 -24.570312 102.984375 -19.34375 L 104.546875 -13.59375 C 118.140625 -13.9375 130.335938 -15.585938 141.140625 -18.546875 C 151.953125 -21.515625 160.753906 -27.003906 167.546875 -35.015625 C 174.335938 -43.035156 177.910156 -54.710938 178.265625 -70.046875 C 177.210938 -87.472656 172.242188 -101.9375 163.359375 -113.4375 C 154.472656 -124.9375 143.40625 -134.609375 130.15625 -142.453125 C 116.914062 -150.296875 102.976562 -157.703125 88.34375 -164.671875 C 73.707031 -171.640625 60.03125 -179.128906 47.3125 -187.140625 C 34.59375 -195.160156 24.484375 -205.09375 16.984375 -216.9375 C 9.492188 -228.789062 6.097656 -243.78125 6.796875 -261.90625 C 7.492188 -279.675781 11.5 -293.789062 18.8125 -304.25 C 26.132812 -314.707031 35.546875 -322.546875 47.046875 -327.765625 C 58.546875 -332.992188 71.175781 -336.394531 84.9375 -337.96875 C 98.707031 -339.539062 112.566406 -340.328125 126.515625 -340.328125 Z M 126.515625 -340.328125 "/></g></g></g><g fill="#27c3bf" fill-opacity="1"><g transform="translate(557.095842, 996.062126)"><g><path d="M 181.921875 -347.640625 C 206.316406 -347.640625 229.226562 -343.019531 250.65625 -333.78125 C 272.09375 -324.550781 290.914062 -311.832031 307.125 -295.625 C 323.332031 -279.414062 336.050781 -260.59375 345.28125 -239.15625 C 354.519531 -217.726562 359.140625 -194.816406 359.140625 -170.421875 C 359.140625 -146.023438 354.519531 -123.109375 345.28125 -101.671875 C 336.050781 -80.242188 323.332031 -61.335938 307.125 -44.953125 C 290.914062 -28.578125 272.09375 -15.769531 250.65625 -6.53125 C 229.226562 2.695312 206.316406 7.3125 181.921875 7.3125 C 157.523438 7.3125 134.519531 2.695312 112.90625 -6.53125 C 91.300781 -15.769531 72.394531 -28.578125 56.1875 -44.953125 C 39.988281 -61.335938 27.269531 -80.242188 18.03125 -101.671875 C 8.800781 -123.109375 4.1875 -146.023438 4.1875 -170.421875 C 4.1875 -194.816406 8.800781 -217.726562 18.03125 -239.15625 C 27.269531 -260.59375 39.988281 -279.414062 56.1875 -295.625 C 72.394531 -311.832031 91.300781 -324.550781 112.90625 -333.78125 C 134.519531 -343.019531 157.523438 -347.640625 181.921875 -347.640625 Z M 173.03125 -199.171875 C 160.132812 -199.171875 150.03125 -193.941406 142.71875 -183.484375 L 142.71875 -327.78125 C 125.988281 -322.550781 112.394531 -314.007812 101.9375 -302.15625 C 91.476562 -290.3125 83.984375 -276.632812 79.453125 -261.125 C 74.929688 -245.613281 73.628906 -229.84375 75.546875 -213.8125 C 77.460938 -197.78125 82.253906 -182.878906 89.921875 -169.109375 C 97.585938 -155.347656 108.390625 -144.195312 122.328125 -135.65625 C 136.265625 -127.113281 153.164062 -122.84375 173.03125 -122.84375 C 183.488281 -122.84375 192.460938 -126.503906 199.953125 -133.828125 C 207.453125 -141.148438 211.203125 -150.210938 211.203125 -161.015625 C 211.203125 -171.460938 207.453125 -180.429688 199.953125 -187.921875 C 192.460938 -195.421875 183.488281 -199.171875 173.03125 -199.171875 Z M 173.03125 -199.171875 "/></g></g></g><g fill="#27c3bf" fill-opacity="1"><g transform="translate(921.467658, 996.062126)"><g><path d="M 17.25 -339.796875 C 29.800781 -339.796875 43.914062 -340.054688 59.59375 -340.578125 C 75.28125 -341.097656 89.046875 -339.269531 100.890625 -335.09375 C 115.878906 -329.863281 128.515625 -321.757812 138.796875 -310.78125 C 149.078125 -299.800781 156.832031 -287.515625 162.0625 -273.921875 C 167.289062 -260.335938 169.554688 -246.921875 168.859375 -233.671875 L 175.125 -232.109375 C 179.3125 -240.117188 182.625 -248.304688 185.0625 -256.671875 C 187.5 -265.035156 188.71875 -273.050781 188.71875 -280.71875 L 188.71875 -339.796875 L 321.5 -339.796875 L 321.5 -274.96875 C 321.5 -262.425781 317.488281 -251.097656 309.46875 -240.984375 C 301.457031 -230.878906 291.351562 -221.382812 279.15625 -212.5 C 266.957031 -203.613281 254.5 -194.988281 241.78125 -186.625 C 229.0625 -178.257812 217.820312 -169.457031 208.0625 -160.21875 C 198.300781 -150.988281 191.851562 -140.972656 188.71875 -130.171875 C 185.582031 -119.367188 187.5 -106.992188 194.46875 -93.046875 L 200.21875 -93.046875 C 204.40625 -105.941406 211.113281 -116.3125 220.34375 -124.15625 C 229.582031 -132 239.863281 -138.007812 251.1875 -142.1875 C 262.507812 -146.375 273.398438 -149.160156 283.859375 -150.546875 C 294.316406 -151.941406 302.941406 -152.726562 309.734375 -152.90625 C 316.535156 -153.082031 319.9375 -153.171875 319.9375 -153.171875 L 319.40625 0 L 266.609375 0 C 249.878906 0 235.066406 -3.832031 222.171875 -11.5 C 209.273438 -19.164062 198.46875 -29.269531 189.75 -41.8125 C 181.039062 -54.363281 174.59375 -67.78125 170.40625 -82.0625 C 166.226562 -96.351562 164.664062 -109.945312 165.71875 -122.84375 L 160.484375 -124.9375 C 145.503906 -108.207031 138.707031 -85.554688 140.09375 -56.984375 L 140.09375 0 L 9.9375 0 L 9.9375 -59.59375 C 9.9375 -76.320312 13.59375 -90.867188 20.90625 -103.234375 C 28.226562 -115.609375 37.640625 -126.5 49.140625 -135.90625 C 60.640625 -145.320312 72.570312 -153.863281 84.9375 -161.53125 C 97.3125 -169.195312 108.550781 -176.6875 118.65625 -184 C 128.769531 -191.320312 136.441406 -199.078125 141.671875 -207.265625 C 146.898438 -215.460938 147.769531 -224.789062 144.28125 -235.25 L 138.015625 -235.25 C 133.484375 -222.351562 126.507812 -212.332031 117.09375 -205.1875 C 107.6875 -198.039062 97.316406 -192.898438 85.984375 -189.765625 C 74.660156 -186.628906 63.679688 -184.710938 53.046875 -184.015625 C 42.421875 -183.316406 33.710938 -183.226562 26.921875 -183.75 C 20.128906 -184.269531 16.734375 -184.53125 16.734375 -184.53125 Z M 17.25 -339.796875 "/></g></g></g><g transform="matrix(1, 0, 0, 1, 256, 220)"><g clip-path="url(#0549512b00)"><g fill="#545454" fill-opacity="1"><g transform="translate(12.216241, 379.412466)"><g><path d="M 277.675781 -315.605469 L 284.699219 15.460938 L 158.917969 17.878906 L 155.851562 -109.425781 L 172.519531 -109.828125 L 173.566406 -93.183594 L 102.871094 -88.738281 L 101.824219 -105.378906 L 118.457031 -104.242188 L 110.304688 15.019531 L -8.515625 17.484375 L 6.253906 -332.242188 L 31.90625 -363.15625 L 242.460938 -372.332031 L 277.570312 -320.53125 Z M 244.335938 -314.898438 L 261.003906 -315.25 L 247.203125 -305.894531 L 220.078125 -345.914062 L 233.882812 -355.269531 L 234.609375 -338.609375 L 40.742188 -330.164062 L 40.019531 -346.820312 L 52.851562 -336.171875 L 35.507812 -315.273438 L 22.675781 -325.921875 L 39.335938 -325.21875 L 25.550781 1.148438 L 8.894531 0.445312 L 8.546875 -16.226562 L 94.363281 -18.003906 L 94.707031 -1.332031 L 78.074219 -2.472656 L 86.183594 -121.105469 L 188.773438 -127.554688 L 191.859375 0.488281 L 175.1875 0.890625 L 174.867188 -15.78125 L 267.355469 -17.558594 L 267.675781 -0.890625 L 251.003906 -0.535156 Z M 155.40625 -176.992188 L 153.183594 -265.476562 L 169.851562 -265.894531 L 171.238281 -249.28125 L 112.546875 -244.386719 L 111.160156 -261.003906 L 127.808594 -260.070312 L 123.363281 -180.921875 L 106.714844 -181.859375 L 107.847656 -198.496094 L 173.207031 -194.046875 L 172.078125 -177.414062 Z M 189.207031 -159.535156 L 89.140625 -166.339844 L 95.324219 -276.417969 L 186.078125 -283.980469 L 188.746094 -177.832031 Z M 189.207031 -159.535156 "/></g></g></g><g fill="#545454" fill-opacity="1"><g transform="translate(284.3369, 379.412466)"><g><path d="M 319.476562 -353.679688 L 323.671875 16.191406 L 197.320312 13.183594 L 189.648438 -203.5 L 206.3125 -204.089844 L 220.175781 -194.824219 L 156.761719 -99.988281 L 96.734375 -192.335938 L 110.714844 -201.421875 L 127.378906 -200.820312 L 119.707031 11.632812 L -8.019531 16.433594 L -2.660156 -373.511719 L 116.992188 -371.8125 L 171.152344 -283.984375 L 156.957031 -275.234375 L 142.648438 -283.789062 L 195.152344 -371.628906 L 319.289062 -369.941406 Z M 286.128906 -353.300781 L 302.800781 -353.492188 L 302.574219 -336.816406 L 204.308594 -338.152344 L 204.535156 -354.824219 L 218.847656 -346.269531 L 157.179688 -243.105469 L 93.410156 -346.515625 L 107.601562 -355.269531 L 107.367188 -338.597656 L 13.546875 -339.929688 L 13.785156 -356.601562 L 30.457031 -356.375 L 25.566406 -0.660156 L 8.894531 -0.890625 L 8.265625 -17.550781 L 102.976562 -21.109375 L 103.601562 -4.445312 L 86.9375 -5.046875 L 95.957031 -254.726562 L 170.9375 -139.367188 L 156.957031 -130.28125 L 143.097656 -139.546875 L 221.152344 -256.277344 L 230.09375 -3.703125 L 213.429688 -3.113281 L 213.824219 -19.78125 L 307.199219 -17.558594 L 306.804688 -0.890625 L 290.128906 -0.699219 Z M 286.128906 -353.300781 "/></g></g></g><g fill="#545454" fill-opacity="1"><g transform="translate(595.585979, 379.412466)"><g><path d="M 11.023438 -367.488281 L 125.332031 -371.175781 L 112.203125 6.144531 L -7.921875 19.015625 L -4.992188 -366.972656 Z M 12.097656 -334.15625 L 11.5625 -350.824219 L 28.234375 -350.695312 L 25.566406 0.570312 L 8.894531 0.445312 L 7.117188 -16.132812 L 94.265625 -25.472656 L 96.042969 -8.894531 L 79.378906 -9.472656 L 91.382812 -354.515625 L 108.046875 -353.933594 L 108.585938 -337.269531 Z M 12.097656 -334.15625 "/></g></g></g><g fill="#545454" fill-opacity="1"><g transform="translate(699.187457, 379.412466)"><g><path d="M 277.675781 -315.605469 L 284.699219 15.460938 L 158.917969 17.878906 L 155.851562 -109.425781 L 172.519531 -109.828125 L 173.566406 -93.183594 L 102.871094 -88.738281 L 101.824219 -105.378906 L 118.457031 -104.242188 L 110.304688 15.019531 L -8.515625 17.484375 L 6.253906 -332.242188 L 31.90625 -363.15625 L 242.460938 -372.332031 L 277.570312 -320.53125 Z M 244.335938 -314.898438 L 261.003906 -315.25 L 247.203125 -305.894531 L 220.078125 -345.914062 L 233.882812 -355.269531 L 234.609375 -338.609375 L 40.742188 -330.164062 L 40.019531 -346.820312 L 52.851562 -336.171875 L 35.507812 -315.273438 L 22.675781 -325.921875 L 39.335938 -325.21875 L 25.550781 1.148438 L 8.894531 0.445312 L 8.546875 -16.226562 L 94.363281 -18.003906 L 94.707031 -1.332031 L 78.074219 -2.472656 L 86.183594 -121.105469 L 188.773438 -127.554688 L 191.859375 0.488281 L 175.1875 0.890625 L 174.867188 -15.78125 L 267.355469 -17.558594 L 267.675781 -0.890625 L 251.003906 -0.535156 Z M 155.40625 -176.992188 L 153.183594 -265.476562 L 169.851562 -265.894531 L 171.238281 -249.28125 L 112.546875 -244.386719 L 111.160156 -261.003906 L 127.808594 -260.070312 L 123.363281 -180.921875 L 106.714844 -181.859375 L 107.847656 -198.496094 L 173.207031 -194.046875 L 172.078125 -177.414062 Z M 189.207031 -159.535156 L 89.140625 -166.339844 L 95.324219 -276.417969 L 186.078125 -283.980469 L 188.746094 -177.832031 Z M 189.207031 -159.535156 "/></g></g></g><g fill="#71fb4b" fill-opacity="1"><g transform="translate(12.216241, 379.412466)"><g><path d="M 261 -315.25 L 267.671875 -0.890625 L 175.1875 0.890625 L 172.515625 -109.828125 L 101.828125 -105.375 L 94.703125 -1.328125 L 8.890625 0.4375 L 22.671875 -325.921875 L 40.015625 -346.8125 L 233.875 -355.265625 Z M 172.078125 -177.40625 L 169.859375 -265.890625 L 111.15625 -261 L 106.71875 -181.859375 Z M 172.078125 -177.40625 "/></g></g></g><g fill="#71fb4b" fill-opacity="1"><g transform="translate(284.3369, 379.412466)"><g><path d="M 302.796875 -353.484375 L 306.796875 -0.890625 L 213.421875 -3.109375 L 206.3125 -204.09375 L 156.953125 -130.28125 L 110.71875 -201.421875 L 103.59375 -4.453125 L 8.890625 -0.890625 L 13.78125 -356.609375 L 107.609375 -355.265625 L 156.953125 -275.234375 L 204.53125 -354.828125 Z M 302.796875 -353.484375 "/></g></g></g><g fill="#71fb4b" fill-opacity="1"><g transform="translate(595.585979, 379.412466)"><g><path d="M 11.5625 -350.828125 L 108.046875 -353.9375 L 96.046875 -8.890625 L 8.890625 0.4375 Z M 11.5625 -350.828125 "/></g></g></g><g fill="#71fb4b" fill-opacity="1"><g transform="translate(699.187457, 379.412466)"><g><path d="M 261 -315.25 L 267.671875 -0.890625 L 175.1875 0.890625 L 172.515625 -109.828125 L 101.828125 -105.375 L 94.703125 -1.328125 L 8.890625 0.4375 L 22.671875 -325.921875 L 40.015625 -346.8125 L 233.875 -355.265625 Z M 172.078125 -177.40625 L 169.859375 -265.890625 L 111.15625 -261 L 106.71875 -181.859375 Z M 172.078125 -177.40625 "/></g></g></g></g></g></svg>