<svg xmlns="http://www.w3.org/2000/svg" xmlns:xlink="http://www.w3.org/1999/xlink" width="1123" zoomAndPan="magnify" viewBox="0 0 842.25 595.499986" height="794" preserveAspectRatio="xMidYMid meet" version="1.0"><defs><clipPath id="2623f97e32"><path d="M 2 251 L 841.5 251 L 841.5 373 L 2 373 Z M 2 251 " clip-rule="nonzero"/></clipPath><clipPath id="aac869111e"><path d="M 0.398438 0.550781 L 839.5 0.550781 L 839.5 121.164062 L 0.398438 121.164062 Z M 0.398438 0.550781 " clip-rule="nonzero"/></clipPath><clipPath id="59c22a65ac"><path d="M 719.527344 0.832031 L 839.457031 0.832031 L 839.457031 120.761719 L 719.527344 120.761719 Z M 719.527344 0.832031 " clip-rule="nonzero"/></clipPath><clipPath id="c271270981"><path d="M 747 0.832031 L 812 0.832031 L 812 120.761719 L 747 120.761719 Z M 747 0.832031 " clip-rule="nonzero"/></clipPath><clipPath id="b7f620315b"><path d="M 719.527344 0.832031 L 839.457031 0.832031 L 839.457031 120.761719 L 719.527344 120.761719 Z M 719.527344 0.832031 " clip-rule="nonzero"/></clipPath><clipPath id="966d81f26a"><path d="M 599.738281 0.832031 L 719.664062 0.832031 L 719.664062 120.761719 L 599.738281 120.761719 Z M 599.738281 0.832031 " clip-rule="nonzero"/></clipPath><clipPath id="af08548269"><path d="M 599.738281 0.832031 L 719.664062 0.832031 L 719.664062 120.761719 L 599.738281 120.761719 Z M 599.738281 0.832031 " clip-rule="nonzero"/></clipPath><clipPath id="c4b6e445dc"><path d="M 479.945312 0.832031 L 599.875 0.832031 L 599.875 120.761719 L 479.945312 120.761719 Z M 479.945312 0.832031 " clip-rule="nonzero"/></clipPath><clipPath id="3cf90f0caa"><path d="M 508 0.832031 L 572 0.832031 L 572 120.761719 L 508 120.761719 Z M 508 0.832031 " clip-rule="nonzero"/></clipPath><clipPath id="9ff878469f"><path d="M 479.945312 0.832031 L 599.875 0.832031 L 599.875 120.761719 L 479.945312 120.761719 Z M 479.945312 0.832031 " clip-rule="nonzero"/></clipPath><clipPath id="e5aa340c30"><path d="M 360.15625 0.832031 L 480.085938 0.832031 L 480.085938 120.761719 L 360.15625 120.761719 Z M 360.15625 0.832031 " clip-rule="nonzero"/></clipPath><clipPath id="0b476a3c9d"><path d="M 360.15625 0.832031 L 480.085938 0.832031 L 480.085938 120.761719 L 360.15625 120.761719 Z M 360.15625 0.832031 " clip-rule="nonzero"/></clipPath><clipPath id="1122218b98"><path d="M 240.363281 0.832031 L 360.292969 0.832031 L 360.292969 120.761719 L 240.363281 120.761719 Z M 240.363281 0.832031 " clip-rule="nonzero"/></clipPath><clipPath id="10cb096359"><path d="M 268 0.832031 L 333 0.832031 L 333 120.761719 L 268 120.761719 Z M 268 0.832031 " clip-rule="nonzero"/></clipPath><clipPath id="1131a901b2"><path d="M 240.363281 0.832031 L 360.292969 0.832031 L 360.292969 120.761719 L 240.363281 120.761719 Z M 240.363281 0.832031 " clip-rule="nonzero"/></clipPath><clipPath id="1bf7b84806"><path d="M 120.574219 0.832031 L 240.503906 0.832031 L 240.503906 120.761719 L 120.574219 120.761719 Z M 120.574219 0.832031 " clip-rule="nonzero"/></clipPath><clipPath id="d04920fac4"><path d="M 120.574219 0.832031 L 240.503906 0.832031 L 240.503906 120.761719 L 120.574219 120.761719 Z M 120.574219 0.832031 " clip-rule="nonzero"/></clipPath><clipPath id="bc2af6e08b"><path d="M 0.785156 0.832031 L 120.710938 0.832031 L 120.710938 120.761719 L 0.785156 120.761719 Z M 0.785156 0.832031 " clip-rule="nonzero"/></clipPath><clipPath id="1d9463dba8"><path d="M 29 0.832031 L 93 0.832031 L 93 120.761719 L 29 120.761719 Z M 29 0.832031 " clip-rule="nonzero"/></clipPath><clipPath id="00155bf315"><path d="M 0.785156 0.832031 L 120.710938 0.832031 L 120.710938 120.761719 L 0.785156 120.761719 Z M 0.785156 0.832031 " clip-rule="nonzero"/></clipPath><clipPath id="929c67538f"><rect x="0" width="840" y="0" height="122"/></clipPath><clipPath id="904ad56cfb"><rect x="0" width="840" y="0" height="122"/></clipPath></defs><g clip-path="url(#2623f97e32)"><g transform="matrix(1, 0, 0, 1, 2, 251)"><g clip-path="url(#904ad56cfb)"><g clip-path="url(#aac869111e)"><g><g clip-path="url(#929c67538f)"><g clip-path="url(#59c22a65ac)"><path fill="#154880" d="M 719.453125 120.902344 L 719.453125 0.894531 L 839.457031 0.898438 L 839.457031 120.902344 Z M 719.453125 120.902344 " fill-opacity="1" fill-rule="nonzero"/></g><path fill="#faaf3f" d="M 779.453125 35.191406 L 754.101562 60.542969 L 779.453125 85.894531 L 804.804688 60.542969 Z M 779.453125 79.445312 L 760.554688 60.542969 L 779.453125 41.644531 L 798.355469 60.542969 Z M 779.519531 33.859375 C 771.019531 33.859375 764.132812 26.972656 764.132812 18.472656 L 794.90625 18.472656 C 794.90625 26.972656 788.015625 33.859375 779.519531 33.859375 Z M 779.519531 18.003906 C 771.019531 18.003906 764.132812 11.113281 764.132812 2.617188 L 794.90625 2.617188 C 794.90625 11.113281 788.015625 18.003906 779.519531 18.003906 Z M 794.90625 103.207031 L 764.128906 103.207031 C 764.128906 94.710938 771.019531 87.820312 779.515625 87.820312 C 788.015625 87.820312 794.90625 94.707031 794.90625 103.207031 Z M 794.90625 119.0625 L 764.128906 119.0625 C 764.128906 110.566406 771.019531 103.675781 779.515625 103.675781 C 788.015625 103.675781 794.90625 110.566406 794.90625 119.0625 Z M 764.300781 60.542969 L 779.453125 75.695312 L 794.605469 60.542969 L 779.453125 45.390625 Z M 784.847656 60.542969 C 784.847656 63.523438 782.433594 65.9375 779.453125 65.9375 C 776.476562 65.9375 774.058594 63.523438 774.058594 60.542969 C 774.058594 57.5625 776.476562 55.148438 779.453125 55.148438 C 782.433594 55.148438 784.847656 57.5625 784.847656 60.542969 Z M 784.847656 60.542969 " fill-opacity="1" fill-rule="nonzero"/><g clip-path="url(#c271270981)"><path fill="#faeea9" d="M 753.296875 66.289062 L 753.296875 77.195312 L 747.839844 71.742188 Z M 811.199219 6.285156 L 805.738281 0.832031 L 805.738281 11.742188 Z M 747.835938 39.015625 L 753.292969 44.46875 L 753.292969 33.558594 Z M 747.835938 60.832031 L 753.292969 66.289062 L 753.292969 55.378906 Z M 747.835938 49.925781 L 753.292969 55.378906 L 753.292969 44.46875 Z M 753.296875 109.925781 L 747.839844 115.378906 L 753.296875 120.832031 Z M 747.835938 17.195312 L 753.292969 22.648438 L 753.292969 11.742188 Z M 747.835938 6.285156 L 753.292969 11.738281 L 753.292969 0.828125 Z M 747.835938 28.105469 L 753.292969 33.558594 L 753.292969 22.648438 Z M 811.199219 17.195312 L 805.738281 11.742188 L 805.738281 22.652344 Z M 811.199219 28.105469 L 805.738281 22.652344 L 805.738281 33.5625 Z M 747.835938 104.46875 L 753.292969 109.921875 L 753.292969 99.015625 Z M 747.835938 93.5625 L 753.292969 99.015625 L 753.292969 88.105469 Z M 805.738281 55.378906 L 811.195312 49.925781 L 805.738281 44.46875 Z M 805.738281 99.015625 L 811.195312 93.5625 L 805.738281 88.109375 Z M 811.199219 60.832031 L 805.738281 55.378906 L 805.738281 66.289062 Z M 811.199219 115.378906 L 805.738281 109.925781 L 805.738281 120.835938 Z M 805.738281 109.925781 L 811.195312 104.472656 L 805.738281 99.019531 Z M 811.199219 82.652344 L 805.738281 77.199219 L 805.738281 88.109375 Z M 805.738281 44.46875 L 811.195312 39.015625 L 805.738281 33.5625 Z M 811.199219 71.742188 L 805.738281 66.289062 L 805.738281 77.199219 Z M 747.835938 82.652344 L 753.292969 88.105469 L 753.292969 77.195312 Z M 747.835938 82.652344 " fill-opacity="1" fill-rule="nonzero"/></g><g clip-path="url(#b7f620315b)"><path fill="#fd4847" d="M 784.847656 60.542969 C 784.847656 63.523438 782.433594 65.9375 779.453125 65.9375 C 776.476562 65.9375 774.058594 63.523438 774.058594 60.542969 C 774.058594 57.5625 776.476562 55.148438 779.453125 55.148438 C 782.433594 55.148438 784.847656 57.5625 784.847656 60.542969 Z M 839.394531 120.902344 L 839.394531 90.902344 L 816.894531 105.902344 Z M 839.394531 30.898438 L 839.394531 0.898438 L 816.894531 15.898438 Z M 839.394531 90.902344 L 839.394531 60.898438 L 816.894531 75.898438 Z M 839.394531 60.898438 L 839.394531 30.898438 L 816.894531 45.898438 Z M 719.390625 60.898438 L 719.390625 90.898438 L 741.890625 75.898438 Z M 719.390625 90.902344 L 719.390625 120.902344 L 741.890625 105.902344 Z M 719.390625 0.898438 L 719.390625 30.898438 L 741.890625 15.898438 Z M 719.390625 30.898438 L 719.390625 60.898438 L 741.890625 45.898438 Z M 719.390625 30.898438 " fill-opacity="1" fill-rule="nonzero"/></g><g clip-path="url(#966d81f26a)"><path fill="#fda601" d="M 719.664062 0.832031 L 719.664062 120.902344 L 599.59375 120.902344 L 599.59375 0.832031 Z M 719.664062 0.832031 " fill-opacity="1" fill-rule="nonzero"/></g><path fill="#faeea9" d="M 701.804688 60.867188 L 659.628906 18.691406 L 617.453125 60.867188 L 659.628906 103.042969 Z M 659.628906 32.339844 L 688.15625 60.867188 L 659.628906 89.394531 L 631.101562 60.867188 Z M 659.628906 32.339844 " fill-opacity="1" fill-rule="nonzero"/><path fill="#7de6f8" d="M 677.671875 60.867188 L 659.628906 42.824219 L 641.589844 60.867188 L 659.628906 78.910156 Z M 651.765625 60.867188 L 659.628906 53 L 667.496094 60.867188 L 659.628906 68.734375 Z M 651.765625 60.867188 " fill-opacity="1" fill-rule="nonzero"/><path fill="#154880" d="M 659.628906 117.328125 L 678.835938 98.121094 L 688.496094 107.777344 L 706.539062 89.734375 L 696.878906 80.078125 L 716.085938 60.871094 L 696.878906 41.660156 L 706.539062 32.003906 L 688.496094 13.960938 L 678.835938 23.621094 L 659.628906 4.410156 L 640.421875 23.621094 L 630.761719 13.960938 L 612.722656 32.003906 L 622.378906 41.660156 L 603.171875 60.871094 L 622.378906 80.078125 L 612.722656 89.734375 L 630.761719 107.777344 L 640.421875 98.121094 Z M 697.660156 91.03125 L 689.796875 98.898438 L 681.929688 91.03125 L 689.796875 83.167969 Z M 689.796875 22.835938 L 697.660156 30.703125 L 689.796875 38.566406 L 681.929688 30.703125 Z M 621.148438 30.703125 L 629.011719 22.835938 L 636.878906 30.703125 L 629.011719 38.566406 Z M 629.011719 98.898438 L 621.148438 91.03125 L 629.011719 83.167969 L 636.878906 91.03125 Z M 617.453125 60.867188 L 659.628906 18.691406 L 701.804688 60.867188 L 659.628906 103.042969 Z M 667.496094 60.867188 L 659.628906 68.734375 L 651.765625 60.867188 L 659.628906 53 Z M 667.496094 60.867188 " fill-opacity="1" fill-rule="nonzero"/><g clip-path="url(#af08548269)"><path fill="#fe4942" d="M 688.15625 60.867188 L 659.628906 32.339844 L 631.101562 60.867188 L 659.628906 89.394531 Z M 659.628906 42.824219 L 677.671875 60.867188 L 659.628906 78.910156 L 641.589844 60.867188 Z M 681.929688 91.03125 L 689.796875 83.167969 L 697.660156 91.03125 L 689.796875 98.898438 Z M 689.796875 22.835938 L 697.660156 30.703125 L 689.796875 38.566406 L 681.929688 30.703125 Z M 629.011719 98.898438 L 621.148438 91.03125 L 629.011719 83.167969 L 636.878906 91.03125 Z M 636.878906 30.703125 L 629.011719 38.566406 L 621.148438 30.703125 L 629.011719 22.835938 Z M 692.921875 0.832031 L 719.664062 0.832031 L 719.664062 27.574219 Z M 719.664062 120.902344 L 692.921875 120.902344 L 719.664062 94.160156 Z M 599.59375 94.160156 L 626.339844 120.902344 L 599.59375 120.902344 Z M 626.339844 0.832031 L 599.59375 27.574219 L 599.59375 0.832031 Z M 626.339844 0.832031 " fill-opacity="1" fill-rule="nonzero"/></g><g clip-path="url(#c4b6e445dc)"><path fill="#154880" d="M 479.871094 120.902344 L 479.871094 0.894531 L 599.875 0.898438 L 599.875 120.902344 Z M 479.871094 120.902344 " fill-opacity="1" fill-rule="nonzero"/></g><path fill="#faaf3f" d="M 539.871094 35.191406 L 514.523438 60.542969 L 539.871094 85.894531 L 565.222656 60.542969 Z M 539.871094 79.445312 L 520.972656 60.542969 L 539.871094 41.644531 L 558.773438 60.542969 Z M 539.9375 33.859375 C 531.441406 33.859375 524.550781 26.972656 524.550781 18.472656 L 555.324219 18.472656 C 555.324219 26.972656 548.433594 33.859375 539.9375 33.859375 Z M 539.9375 18.003906 C 531.441406 18.003906 524.550781 11.113281 524.550781 2.617188 L 555.324219 2.617188 C 555.324219 11.113281 548.433594 18.003906 539.9375 18.003906 Z M 555.324219 103.207031 L 524.546875 103.207031 C 524.546875 94.710938 531.4375 87.820312 539.933594 87.820312 C 548.433594 87.820312 555.324219 94.707031 555.324219 103.207031 Z M 555.324219 119.0625 L 524.546875 119.0625 C 524.546875 110.566406 531.4375 103.675781 539.933594 103.675781 C 548.433594 103.675781 555.324219 110.566406 555.324219 119.0625 Z M 524.722656 60.542969 L 539.871094 75.695312 L 555.023438 60.542969 L 539.871094 45.390625 Z M 545.265625 60.542969 C 545.265625 63.523438 542.851562 65.9375 539.871094 65.9375 C 536.894531 65.9375 534.480469 63.523438 534.480469 60.542969 C 534.480469 57.5625 536.894531 55.148438 539.871094 55.148438 C 542.851562 55.148438 545.265625 57.5625 545.265625 60.542969 Z M 545.265625 60.542969 " fill-opacity="1" fill-rule="nonzero"/><g clip-path="url(#3cf90f0caa)"><path fill="#faeea9" d="M 513.714844 66.289062 L 513.714844 77.195312 L 508.257812 71.742188 Z M 571.617188 6.285156 L 566.15625 0.832031 L 566.15625 11.742188 Z M 508.253906 39.015625 L 513.714844 44.46875 L 513.714844 33.558594 Z M 508.253906 60.832031 L 513.714844 66.289062 L 513.714844 55.378906 Z M 508.253906 49.925781 L 513.714844 55.378906 L 513.714844 44.46875 Z M 513.714844 109.925781 L 508.257812 115.378906 L 513.714844 120.832031 Z M 508.253906 17.195312 L 513.714844 22.648438 L 513.714844 11.742188 Z M 508.253906 6.285156 L 513.714844 11.738281 L 513.714844 0.828125 Z M 508.253906 28.105469 L 513.714844 33.558594 L 513.714844 22.648438 Z M 571.617188 17.195312 L 566.160156 11.742188 L 566.160156 22.652344 Z M 571.617188 28.105469 L 566.15625 22.652344 L 566.15625 33.5625 Z M 508.253906 104.46875 L 513.714844 109.921875 L 513.714844 99.015625 Z M 508.253906 93.5625 L 513.714844 99.015625 L 513.714844 88.105469 Z M 566.15625 55.378906 L 571.613281 49.925781 L 566.15625 44.46875 Z M 566.15625 99.015625 L 571.613281 93.5625 L 566.15625 88.109375 Z M 571.617188 60.832031 L 566.160156 55.378906 L 566.160156 66.289062 Z M 571.617188 115.378906 L 566.160156 109.925781 L 566.160156 120.835938 Z M 566.15625 109.925781 L 571.613281 104.472656 L 566.15625 99.019531 Z M 571.617188 82.652344 L 566.160156 77.199219 L 566.160156 88.109375 Z M 566.15625 44.46875 L 571.613281 39.015625 L 566.15625 33.5625 Z M 571.617188 71.742188 L 566.160156 66.289062 L 566.160156 77.199219 Z M 508.253906 82.652344 L 513.714844 88.105469 L 513.714844 77.195312 Z M 508.253906 82.652344 " fill-opacity="1" fill-rule="nonzero"/></g><g clip-path="url(#9ff878469f)"><path fill="#fd4847" d="M 545.265625 60.542969 C 545.265625 63.523438 542.851562 65.9375 539.871094 65.9375 C 536.894531 65.9375 534.480469 63.523438 534.480469 60.542969 C 534.480469 57.5625 536.894531 55.148438 539.871094 55.148438 C 542.851562 55.148438 545.265625 57.5625 545.265625 60.542969 Z M 599.816406 120.902344 L 599.816406 90.902344 L 577.3125 105.902344 Z M 599.816406 30.898438 L 599.816406 0.898438 L 577.3125 15.898438 Z M 599.816406 90.902344 L 599.816406 60.898438 L 577.3125 75.898438 Z M 599.816406 60.898438 L 599.816406 30.898438 L 577.3125 45.898438 Z M 479.808594 60.898438 L 479.808594 90.898438 L 502.3125 75.898438 Z M 479.808594 90.902344 L 479.808594 120.902344 L 502.3125 105.902344 Z M 479.808594 0.898438 L 479.808594 30.898438 L 502.3125 15.898438 Z M 479.808594 30.898438 L 479.808594 60.898438 L 502.3125 45.898438 Z M 479.808594 30.898438 " fill-opacity="1" fill-rule="nonzero"/></g><g clip-path="url(#e5aa340c30)"><path fill="#fda601" d="M 480.082031 0.832031 L 480.082031 120.902344 L 360.011719 120.902344 L 360.011719 0.832031 Z M 480.082031 0.832031 " fill-opacity="1" fill-rule="nonzero"/></g><path fill="#faeea9" d="M 462.222656 60.867188 L 420.046875 18.691406 L 377.875 60.867188 L 420.046875 103.042969 Z M 420.046875 32.339844 L 448.574219 60.867188 L 420.046875 89.394531 L 391.519531 60.867188 Z M 420.046875 32.339844 " fill-opacity="1" fill-rule="nonzero"/><path fill="#7de6f8" d="M 438.089844 60.867188 L 420.046875 42.824219 L 402.007812 60.867188 L 420.046875 78.910156 Z M 412.183594 60.867188 L 420.046875 53 L 427.914062 60.867188 L 420.046875 68.734375 Z M 412.183594 60.867188 " fill-opacity="1" fill-rule="nonzero"/><path fill="#154880" d="M 420.046875 117.328125 L 439.257812 98.121094 L 448.914062 107.777344 L 466.957031 89.734375 L 457.296875 80.078125 L 476.507812 60.871094 L 457.296875 41.660156 L 466.957031 32.003906 L 448.914062 13.960938 L 439.257812 23.621094 L 420.046875 4.410156 L 400.839844 23.621094 L 391.179688 13.960938 L 373.140625 32.003906 L 382.796875 41.660156 L 363.589844 60.871094 L 382.796875 80.078125 L 373.140625 89.734375 L 391.179688 107.777344 L 400.839844 98.121094 Z M 458.078125 91.03125 L 450.214844 98.898438 L 442.347656 91.03125 L 450.214844 83.167969 Z M 450.214844 22.835938 L 458.078125 30.703125 L 450.214844 38.566406 L 442.347656 30.703125 Z M 381.566406 30.703125 L 389.433594 22.835938 L 397.296875 30.703125 L 389.433594 38.566406 Z M 389.433594 98.898438 L 381.566406 91.03125 L 389.433594 83.167969 L 397.296875 91.03125 Z M 377.875 60.867188 L 420.046875 18.691406 L 462.222656 60.867188 L 420.046875 103.042969 Z M 427.914062 60.867188 L 420.046875 68.734375 L 412.183594 60.867188 L 420.046875 53 Z M 427.914062 60.867188 " fill-opacity="1" fill-rule="nonzero"/><g clip-path="url(#0b476a3c9d)"><path fill="#fe4942" d="M 448.574219 60.867188 L 420.046875 32.339844 L 391.519531 60.867188 L 420.046875 89.394531 Z M 420.046875 42.824219 L 438.089844 60.867188 L 420.046875 78.910156 L 402.007812 60.867188 Z M 442.347656 91.03125 L 450.214844 83.167969 L 458.078125 91.03125 L 450.214844 98.898438 Z M 450.214844 22.835938 L 458.078125 30.703125 L 450.214844 38.566406 L 442.347656 30.703125 Z M 389.433594 98.898438 L 381.566406 91.03125 L 389.433594 83.167969 L 397.296875 91.03125 Z M 397.296875 30.703125 L 389.433594 38.566406 L 381.566406 30.703125 L 389.433594 22.835938 Z M 453.339844 0.832031 L 480.082031 0.832031 L 480.082031 27.574219 Z M 480.082031 120.902344 L 453.339844 120.902344 L 480.082031 94.160156 Z M 360.011719 94.160156 L 386.757812 120.902344 L 360.011719 120.902344 Z M 386.757812 0.832031 L 360.011719 27.574219 L 360.011719 0.832031 Z M 386.757812 0.832031 " fill-opacity="1" fill-rule="nonzero"/></g><g clip-path="url(#1122218b98)"><path fill="#154880" d="M 240.289062 120.902344 L 240.289062 0.894531 L 360.292969 0.898438 L 360.292969 120.902344 Z M 240.289062 120.902344 " fill-opacity="1" fill-rule="nonzero"/></g><path fill="#faaf3f" d="M 300.292969 35.191406 L 274.941406 60.542969 L 300.292969 85.894531 L 325.640625 60.542969 Z M 300.292969 79.445312 L 281.390625 60.542969 L 300.292969 41.644531 L 319.191406 60.542969 Z M 300.355469 33.859375 C 291.859375 33.859375 284.96875 26.972656 284.96875 18.472656 L 315.746094 18.472656 C 315.742188 26.972656 308.851562 33.859375 300.355469 33.859375 Z M 300.355469 18.003906 C 291.859375 18.003906 284.96875 11.113281 284.96875 2.617188 L 315.746094 2.617188 C 315.742188 11.113281 308.851562 18.003906 300.355469 18.003906 Z M 315.742188 103.207031 L 284.96875 103.207031 C 284.96875 94.710938 291.855469 87.820312 300.355469 87.820312 C 308.851562 87.820312 315.742188 94.707031 315.742188 103.207031 Z M 315.742188 119.0625 L 284.96875 119.0625 C 284.96875 110.566406 291.855469 103.675781 300.355469 103.675781 C 308.851562 103.675781 315.742188 110.566406 315.742188 119.0625 Z M 285.140625 60.542969 L 300.292969 75.695312 L 315.441406 60.542969 L 300.292969 45.390625 Z M 305.683594 60.542969 C 305.683594 63.523438 303.269531 65.9375 300.292969 65.9375 C 297.3125 65.9375 294.898438 63.523438 294.898438 60.542969 C 294.898438 57.5625 297.3125 55.148438 300.292969 55.148438 C 303.269531 55.148438 305.683594 57.5625 305.683594 60.542969 Z M 305.683594 60.542969 " fill-opacity="1" fill-rule="nonzero"/><g clip-path="url(#10cb096359)"><path fill="#faeea9" d="M 274.132812 66.289062 L 274.132812 77.195312 L 268.675781 71.742188 Z M 332.035156 6.285156 L 326.574219 0.832031 L 326.574219 11.742188 Z M 268.671875 39.015625 L 274.132812 44.46875 L 274.132812 33.558594 Z M 268.671875 60.832031 L 274.132812 66.289062 L 274.132812 55.378906 Z M 268.671875 49.925781 L 274.132812 55.378906 L 274.132812 44.46875 Z M 274.132812 109.925781 L 268.675781 115.378906 L 274.132812 120.832031 Z M 268.671875 17.195312 L 274.132812 22.648438 L 274.132812 11.742188 Z M 268.671875 6.285156 L 274.132812 11.738281 L 274.132812 0.828125 Z M 268.671875 28.105469 L 274.132812 33.558594 L 274.132812 22.648438 Z M 332.035156 17.195312 L 326.578125 11.742188 L 326.578125 22.652344 Z M 332.035156 28.105469 L 326.574219 22.652344 L 326.574219 33.5625 Z M 268.671875 104.46875 L 274.132812 109.921875 L 274.132812 99.015625 Z M 268.671875 93.5625 L 274.132812 99.015625 L 274.132812 88.105469 Z M 326.574219 55.378906 L 332.035156 49.925781 L 326.574219 44.46875 Z M 326.574219 99.015625 L 332.035156 93.5625 L 326.574219 88.109375 Z M 332.035156 60.832031 L 326.578125 55.378906 L 326.578125 66.289062 Z M 332.035156 115.378906 L 326.578125 109.925781 L 326.578125 120.835938 Z M 326.574219 109.925781 L 332.035156 104.472656 L 326.574219 99.019531 Z M 332.035156 82.652344 L 326.578125 77.199219 L 326.578125 88.109375 Z M 326.574219 44.46875 L 332.035156 39.015625 L 326.574219 33.5625 Z M 332.035156 71.742188 L 326.578125 66.289062 L 326.578125 77.199219 Z M 268.671875 82.652344 L 274.132812 88.105469 L 274.132812 77.195312 Z M 268.671875 82.652344 " fill-opacity="1" fill-rule="nonzero"/></g><g clip-path="url(#1131a901b2)"><path fill="#fd4847" d="M 305.683594 60.542969 C 305.683594 63.523438 303.269531 65.9375 300.292969 65.9375 C 297.3125 65.9375 294.898438 63.523438 294.898438 60.542969 C 294.898438 57.5625 297.3125 55.148438 300.292969 55.148438 C 303.269531 55.148438 305.683594 57.5625 305.683594 60.542969 Z M 360.234375 120.902344 L 360.234375 90.902344 L 337.730469 105.902344 Z M 360.234375 30.898438 L 360.234375 0.898438 L 337.730469 15.898438 Z M 360.234375 90.902344 L 360.234375 60.898438 L 337.730469 75.898438 Z M 360.234375 60.898438 L 360.234375 30.898438 L 337.730469 45.898438 Z M 240.230469 60.898438 L 240.230469 90.898438 L 262.730469 75.898438 Z M 240.230469 90.902344 L 240.230469 120.902344 L 262.730469 105.902344 Z M 240.230469 0.898438 L 240.230469 30.898438 L 262.730469 15.898438 Z M 240.230469 30.898438 L 240.230469 60.898438 L 262.730469 45.898438 Z M 240.230469 30.898438 " fill-opacity="1" fill-rule="nonzero"/></g><g clip-path="url(#1bf7b84806)"><path fill="#fda601" d="M 240.503906 0.832031 L 240.503906 120.902344 L 120.429688 120.902344 L 120.429688 0.832031 Z M 240.503906 0.832031 " fill-opacity="1" fill-rule="nonzero"/></g><path fill="#faeea9" d="M 222.640625 60.867188 L 180.46875 18.691406 L 138.292969 60.867188 L 180.46875 103.042969 Z M 180.46875 32.339844 L 208.996094 60.867188 L 180.46875 89.394531 L 151.941406 60.867188 Z M 180.46875 32.339844 " fill-opacity="1" fill-rule="nonzero"/><path fill="#7de6f8" d="M 198.507812 60.867188 L 180.46875 42.824219 L 162.425781 60.867188 L 180.46875 78.910156 Z M 172.601562 60.867188 L 180.46875 53 L 188.332031 60.867188 L 180.46875 68.734375 Z M 172.601562 60.867188 " fill-opacity="1" fill-rule="nonzero"/><path fill="#154880" d="M 180.46875 117.328125 L 199.675781 98.121094 L 209.332031 107.777344 L 227.375 89.734375 L 217.714844 80.078125 L 236.925781 60.871094 L 217.714844 41.660156 L 227.375 32.003906 L 209.332031 13.960938 L 199.675781 23.621094 L 180.46875 4.410156 L 161.257812 23.621094 L 151.601562 13.960938 L 133.558594 32.003906 L 143.21875 41.660156 L 124.007812 60.871094 L 143.21875 80.078125 L 133.558594 89.734375 L 151.601562 107.777344 L 161.257812 98.121094 Z M 218.5 91.03125 L 210.632812 98.898438 L 202.765625 91.03125 L 210.632812 83.167969 Z M 210.632812 22.835938 L 218.5 30.703125 L 210.632812 38.566406 L 202.765625 30.703125 Z M 141.984375 30.703125 L 149.851562 22.835938 L 157.71875 30.703125 L 149.851562 38.566406 Z M 149.851562 98.898438 L 141.984375 91.03125 L 149.851562 83.167969 L 157.71875 91.03125 Z M 138.292969 60.867188 L 180.46875 18.691406 L 222.640625 60.867188 L 180.46875 103.042969 Z M 188.332031 60.867188 L 180.46875 68.734375 L 172.601562 60.867188 L 180.46875 53 Z M 188.332031 60.867188 " fill-opacity="1" fill-rule="nonzero"/><g clip-path="url(#d04920fac4)"><path fill="#fe4942" d="M 208.996094 60.867188 L 180.46875 32.339844 L 151.941406 60.867188 L 180.46875 89.394531 Z M 180.46875 42.824219 L 198.507812 60.867188 L 180.46875 78.910156 L 162.425781 60.867188 Z M 202.765625 91.03125 L 210.632812 83.167969 L 218.5 91.03125 L 210.632812 98.898438 Z M 210.632812 22.835938 L 218.5 30.703125 L 210.632812 38.566406 L 202.765625 30.703125 Z M 149.851562 98.898438 L 141.984375 91.03125 L 149.851562 83.167969 L 157.71875 91.03125 Z M 157.71875 30.703125 L 149.851562 38.566406 L 141.984375 30.703125 L 149.851562 22.835938 Z M 213.757812 0.832031 L 240.503906 0.832031 L 240.503906 27.574219 Z M 240.503906 120.902344 L 213.757812 120.902344 L 240.503906 94.160156 Z M 120.429688 94.160156 L 147.175781 120.902344 L 120.429688 120.902344 Z M 147.175781 0.832031 L 120.429688 27.574219 L 120.429688 0.832031 Z M 147.175781 0.832031 " fill-opacity="1" fill-rule="nonzero"/></g><g clip-path="url(#bc2af6e08b)"><path fill="#154880" d="M 0.707031 120.902344 L 0.707031 0.894531 L 120.710938 0.898438 L 120.710938 120.902344 Z M 0.707031 120.902344 " fill-opacity="1" fill-rule="nonzero"/></g><path fill="#faaf3f" d="M 60.710938 35.191406 L 35.359375 60.542969 L 60.710938 85.894531 L 86.058594 60.542969 Z M 60.710938 79.445312 L 41.808594 60.542969 L 60.710938 41.644531 L 79.609375 60.542969 Z M 60.773438 33.859375 C 52.277344 33.859375 45.386719 26.972656 45.386719 18.472656 L 76.164062 18.472656 C 76.160156 26.972656 69.273438 33.859375 60.773438 33.859375 Z M 60.773438 18.003906 C 52.277344 18.003906 45.386719 11.113281 45.386719 2.617188 L 76.164062 2.617188 C 76.160156 11.113281 69.273438 18.003906 60.773438 18.003906 Z M 76.160156 103.207031 L 45.386719 103.207031 C 45.386719 94.710938 52.273438 87.820312 60.773438 87.820312 C 69.273438 87.820312 76.160156 94.707031 76.160156 103.207031 Z M 76.160156 119.0625 L 45.386719 119.0625 C 45.386719 110.566406 52.273438 103.675781 60.773438 103.675781 C 69.273438 103.675781 76.160156 110.566406 76.160156 119.0625 Z M 45.558594 60.542969 L 60.710938 75.695312 L 75.859375 60.542969 L 60.710938 45.390625 Z M 66.105469 60.542969 C 66.105469 63.523438 63.6875 65.9375 60.710938 65.9375 C 57.730469 65.9375 55.316406 63.523438 55.316406 60.542969 C 55.316406 57.5625 57.730469 55.148438 60.710938 55.148438 C 63.6875 55.148438 66.105469 57.5625 66.105469 60.542969 Z M 66.105469 60.542969 " fill-opacity="1" fill-rule="nonzero"/><g clip-path="url(#1d9463dba8)"><path fill="#faeea9" d="M 34.554688 66.289062 L 34.554688 77.195312 L 29.09375 71.742188 Z M 92.453125 6.285156 L 86.992188 0.832031 L 86.992188 11.742188 Z M 29.09375 39.015625 L 34.550781 44.46875 L 34.550781 33.558594 Z M 29.09375 60.832031 L 34.550781 66.289062 L 34.550781 55.378906 Z M 29.09375 49.925781 L 34.550781 55.378906 L 34.550781 44.46875 Z M 34.554688 109.925781 L 29.09375 115.378906 L 34.554688 120.832031 Z M 29.09375 17.195312 L 34.550781 22.648438 L 34.550781 11.742188 Z M 29.09375 6.285156 L 34.550781 11.738281 L 34.550781 0.828125 Z M 29.09375 28.105469 L 34.550781 33.558594 L 34.550781 22.648438 Z M 92.453125 17.195312 L 86.996094 11.742188 L 86.996094 22.652344 Z M 92.453125 28.105469 L 86.992188 22.652344 L 86.992188 33.5625 Z M 29.09375 104.46875 L 34.550781 109.921875 L 34.550781 99.015625 Z M 29.09375 93.5625 L 34.550781 99.015625 L 34.550781 88.105469 Z M 86.992188 55.378906 L 92.453125 49.925781 L 86.992188 44.46875 Z M 86.992188 99.015625 L 92.453125 93.5625 L 86.992188 88.109375 Z M 92.453125 60.832031 L 86.996094 55.378906 L 86.996094 66.289062 Z M 92.453125 115.378906 L 86.996094 109.925781 L 86.996094 120.835938 Z M 86.992188 109.925781 L 92.453125 104.472656 L 86.992188 99.019531 Z M 92.453125 82.652344 L 86.996094 77.199219 L 86.996094 88.109375 Z M 86.992188 44.46875 L 92.453125 39.015625 L 86.992188 33.5625 Z M 92.453125 71.742188 L 86.996094 66.289062 L 86.996094 77.199219 Z M 29.09375 82.652344 L 34.550781 88.105469 L 34.550781 77.195312 Z M 29.09375 82.652344 " fill-opacity="1" fill-rule="nonzero"/></g><g clip-path="url(#00155bf315)"><path fill="#fd4847" d="M 66.105469 60.542969 C 66.105469 63.523438 63.6875 65.9375 60.710938 65.9375 C 57.730469 65.9375 55.316406 63.523438 55.316406 60.542969 C 55.316406 57.5625 57.730469 55.148438 60.710938 55.148438 C 63.6875 55.148438 66.105469 57.5625 66.105469 60.542969 Z M 120.652344 120.902344 L 120.652344 90.902344 L 98.152344 105.902344 Z M 120.652344 30.898438 L 120.652344 0.898438 L 98.152344 15.898438 Z M 120.652344 90.902344 L 120.652344 60.898438 L 98.152344 75.898438 Z M 120.652344 60.898438 L 120.652344 30.898438 L 98.152344 45.898438 Z M 0.648438 60.898438 L 0.648438 90.898438 L 23.148438 75.898438 Z M 0.648438 90.902344 L 0.648438 120.902344 L 23.148438 105.902344 Z M 0.648438 0.898438 L 0.648438 30.898438 L 23.148438 15.898438 Z M 0.648438 30.898438 L 0.648438 60.898438 L 23.148438 45.898438 Z M 0.648438 30.898438 " fill-opacity="1" fill-rule="nonzero"/></g></g></g></g></g></g></g></svg>